# xmcd
#
# Track frame offsets: 
#        150
#        13181
#        25442
#        43976
#        63947
#        83144
#        102440
#        115831
#        130039
#        152208
#        174333
#        200244
#        222714
#        243604
#        276161
#        287252
#        309469
#        331727
#
# Disc length: 4665 seconds
#
# Revision: 0
# Processed by: cddbd v1.5.2PL0 Copyright (c) Steve Scherf et al.
# Submitted via: ExactAudioCopy v0.99pb5
#
DISCID=0b123712
DTITLE=Various Artist - Unusual Suspects - Valve Records Compilation 2010
DYEAR=2010
DGENRE=Blues
TTITLE0=Purple Sex Heads - Sensational
TTITLE1=Carus Thompson - Creature Of Habit
TTITLE2=Peter Jagger And The Class - Clouds Of Destruction
TTITLE3=Parfum Brutal - Today
TTITLE4=King Size Clan - Rebel Rebel
TTITLE5=Too Dumb To Lie - Empathisch
TTITLE6=Lax Alex Bio Trio - Vorne
TTITLE7=Slo-Mo Beauties - No Reason
TTITLE8=Son De La Goutte - Oracle
TTITLE9=Jens Filser - 21 Days
TTITLE10=Spencer Bohren - People Get Ready
TTITLE11=Mick Hart - Gone (Song For Emilie)
TTITLE12=Jaimi Faulkner - Hold On Baby
TTITLE13=Eric Taylor - I Shall Be Released
TTITLE14=Mick Thomas - Driving Rain
TTITLE15=Michael Weston King - No More Songs
TTITLE16=Flipper Trio - Bergwanderung
TTITLE17=Stufe 3 - Summer Walk
EXTD=
EXTT0=
EXTT1=
EXTT2=
EXTT3=
EXTT4=
EXTT5=
EXTT6=
EXTT7=
EXTT8=
EXTT9=
EXTT10=
EXTT11=
EXTT12=
EXTT13=
EXTT14=
EXTT15=
EXTT16=
EXTT17=
PLAYORDER=
